HIERARCHY
ROOT Hips
{
  OFFSET 0 0 0
  CHANNELS 6 Xposition Yposition Zposition Zrotation Yrotation Xrotation
  JOINT LeftThigh
  {
    OFFSET 8.409438 0 -5.917753
    CHANNELS 3 Zrotation Yrotation Xrotation
    JOINT LeftLeg
    {
      OFFSET 0 0 -42.358652
      CHANNELS 3 Zrotation Yrotation Xrotation
      JOINT LeftFoot
      {
        OFFSET 0 0 -39.357303
        CHANNELS 3 Zrotation Yrotation Xrotation
      }
    }
  }
  JOINT RightThigh
  {
    OFFSET -8.409438 0 -5.917753
    CHANNELS 3 Zrotation Yrotation Xrotation
    JOINT RightLeg
    {
      OFFSET 0 0 -42.358652
      CHANNELS 3 Zrotation Yrotation Xrotation
      JOINT RightFoot
      {
        OFFSET 0 0 -39.357303
        CHANNELS 3 Zrotation Yrotation Xrotation
      }
    }
  }
  JOINT SpineLow
  {
    OFFSET 0 0 4.719101
    CHANNELS 3 Zrotation Yrotation Xrotation
    JOINT SpineMid
    {
      OFFSET 0 0 12.899191
      CHANNELS 3 Zrotation Yrotation Xrotation
      JOINT Chest
      {
        OFFSET 0 0 12.899191
        CHANNELS 3 Zrotation Yrotation Xrotation
        JOINT LeftShoulder
        {
          OFFSET 7.550562 1.41573 9.438202
          CHANNELS 3 Zrotation Yrotation Xrotation
          JOINT LeftArm
          {
            OFFSET 9.155056 0 4.247191
            CHANNELS 3 Zrotation Yrotation Xrotation
            JOINT LeftForearm
            {
              OFFSET 0 0 25.771955
              CHANNELS 3 Zrotation Yrotation Xrotation
              JOINT LeftHand
              {
                OFFSET 0 0 25.197169
                CHANNELS 3 Zrotation Yrotation Xrotation
              }
            }
          }
        }
        JOINT RightShoulder
        {
          OFFSET -7.550562 1.41573 9.438202
          CHANNELS 3 Zrotation Yrotation Xrotation
          JOINT RightArm
          {
            OFFSET -9.155056 0 4.247191
            CHANNELS 3 Zrotation Yrotation Xrotation
            JOINT RightForearm
            {
              OFFSET 0 0 -25.771955
              CHANNELS 3 Zrotation Yrotation Xrotation
              JOINT RightHand
              {
                OFFSET 0 0 -25.197169
                CHANNELS 3 Zrotation Yrotation Xrotation
              }
            }
          }
        }
        JOINT Neck
        {
          OFFSET 0 0 15.101124
          CHANNELS 3 Zrotation Yrotation Xrotation
          JOINT Head
          {
            OFFSET 0 0 11.325843
            CHANNELS 3 Zrotation Yrotation Xrotation
            End Site
            {
              OFFSET 0 0 14.157303
            }
          }
        }
      }
    }
  }
}
MOTION
Frames: 10
Frame Time: 0.0
0.0  101.685394  0.0  0.404189  -42.736879  -100.407347  38.089017  -29.869137  -28.231637  4.867564  27.446667  52.943137  1.83507  3.723927  1.482615  5.493079  -16.46662  9.222009  -32.009851  40.853346  8.803812  29.041954  18.462774  -0.594771  -3.263982  -0.191444  1.022138  -8.928123  -0.384336  2.813901  -8.928123  -0.384336  2.813901  21.187953  24.085808  13.279438  -166.981152  76.864604  -131.885394  -54.268822  -29.045214  94.258133  25.468963  -33.025916  3.254849  39.491117  -2.331152  36.277555  112.670962  19.725979  42.178493  -14.554229  5.350202  -106.155735  99.516658  28.570192  73.774615  13.704825  -0.62939  -3.466877  10.275342  -0.550158  -2.587558  
0.0  101.685394  0.0  -0.256183  -44.096036  -99.878494  38.648364  -30.965912  -29.942818  6.834587  25.955708  56.141677  -0.820462  3.46944  0.628321  6.883502  -17.08875  9.56556  -36.405913  39.675312  5.013928  32.072551  17.531259  -0.879101  -3.269967  -0.269895  1.354451  -8.950216  -0.553056  3.73101  -8.950216  -0.553056  3.73101  20.293973  24.733092  11.501325  -159.056155  76.971752  -125.324991  -53.857501  -29.659324  94.540667  25.839599  -33.925528  1.798741  38.939204  -1.206594  34.99412  112.379334  19.709119  42.79176  -13.936217  5.925398  -104.967319  99.241035  28.545378  73.895705  14.691978  -0.621806  -4.70923  11.014869  -0.580042  -3.51935  
0.0  101.685394  0.0  -0.865067  -45.04851  -99.25771  39.281738  -31.832663  -31.609557  6.416884  26.194567  57.151943  -1.08407  3.669422  0.755857  8.082203  -17.545428  9.960799  -35.377026  36.946103  4.928645  30.650966  17.386978  -0.595733  -3.354602  -0.379071  1.586187  -9.190231  -0.81369  4.37882  -9.190231  -0.81369  4.37882  19.912947  25.244339  10.075088  -154.293472  76.875497  -121.801975  -53.680951  -30.100987  94.539422  25.812879  -34.345154  1.063178  38.855913  -0.182013  34.177337  111.818867  19.657235  43.151729  -13.719387  6.429573  -103.9853  99.049149  28.632139  74.315673  15.58472  -0.44818  -5.662209  11.685531  -0.481005  -4.238476  
0.0  101.685394  0.0  -1.386853  -45.706497  -98.695652  39.890981  -32.552107  -32.97714  7.598107  25.072942  59.631183  -3.474593  3.135534  -0.130784  7.721283  -17.263929  10.817174  -33.276345  34.322253  5.359415  28.44124  17.806027  -0.911354  -3.441636  -0.478746  1.713786  -9.436621  -1.061335  4.741987  -9.436622  -1.061335  4.741987  19.670354  25.431544  9.296452  -151.9766  76.702433  -120.49479  -53.856849  -30.282129  94.277353  25.561673  -34.209508  1.209537  38.846133  0.425393  33.883248  111.119364  19.593375  43.303011  -13.766383  6.748271  -103.09845  98.658965  28.963882  74.691263  16.294744  -0.299216  -6.171819  12.219501  -0.38942  -4.62478  
0.0  101.685394  0.0  -1.908504  -46.013371  -98.064033  40.221431  -33.145851  -34.089479  6.819165  25.595825  59.913307  -3.505586  3.219256  -0.055109  4.989763  -16.310813  11.873143  -29.374665  32.388022  5.823764  26.469676  17.904335  -0.990416  -3.523291  -0.581429  1.77449  -9.668478  -1.326352  4.923775  -9.668478  -1.326352  4.923775  19.248105  25.701232  9.015852  -150.051477  76.635885  -119.399344  -54.188663  -30.237791  93.762462  25.283817  -33.60315  1.981998  38.78984  0.680759  33.842563  110.29962  19.494214  43.334404  -14.030309  7.131724  -102.251709  97.856095  29.437858  74.872678  16.851677  -0.130821  -6.346943  12.639024  -0.273494  -4.760898  
0.0  101.685394  0.0  -2.344988  -46.007822  -97.507073  40.137089  -33.639079  -34.89064  6.199218  26.057719  59.968585  -3.464941  3.287911  0.027364  0.600898  -14.91974  12.787094  -25.616086  31.537903  5.937292  26.480855  18.000536  -0.774542  -3.609125  -0.66301  1.797291  -9.909865  -1.538739  4.999799  -9.909865  -1.538739  4.999799  18.817878  26.112049  9.015302  -148.267016  76.866718  -118.25705  -54.567639  -30.075028  92.938959  25.079188  -32.800605  3.22833  38.632445  0.697728  34.048048  109.629204  19.509407  43.361821  -14.423574  7.512737  -101.395396  96.927438  29.862738  74.968295  17.284102  -0.002253  -6.357489  12.964731  -0.181778  -4.772589  
0.0  101.685394  0.0  -2.625835  -45.770364  -97.253267  39.573487  -34.075238  -35.253314  5.764228  26.397592  59.857596  -3.249158  3.33433  0.152626  -3.504891  -13.892691  13.453066  -23.099029  31.645239  6.217994  27.383636  17.990498  -0.917102  -3.697986  -0.713083  1.862263  -10.158089  -1.658342  5.186537  -10.158089  -1.658342  5.186538  18.228699  26.588582  8.887145  -146.291365  77.112251  -116.834715  -54.800649  -29.71636  91.940591  25.088111  -31.875913  4.681603  38.322161  0.844357  34.198071  109.244366  19.689778  43.363098  -14.959101  7.603697  -100.361375  96.242491  30.114517  74.894336  17.64508  0.129324  -6.393001  13.236888  -0.087785  -4.803242  
0.0  101.685394  0.0  -2.818668  -45.351339  -97.202944  38.74132  -34.392434  -35.370206  6.779232  25.90208  60.898342  -4.07774  2.673854  -0.285958  -5.840962  -13.351443  13.646537  -23.067429  31.981739  6.328174  28.951543  17.943404  -1.072529  -3.758808  -0.739047  1.973601  -10.328918  -1.706802  5.495512  -10.328918  -1.706802  5.495512  17.314197  26.79678  8.526488  -144.846554  76.919524  -115.83814  -54.757482  -29.166547  91.047959  25.346134  -30.88564  6.012605  37.775987  1.124383  34.081725  108.977198  19.923058  43.242963  -15.291305  7.483063  -99.265011  95.948711  29.970427  74.805949  17.861995  0.238857  -6.427812  13.400759  -0.008838  -4.832741  
0.0  101.685394  0.0  -2.795907  -44.683627  -97.324351  37.847135  -34.385282  -35.39784  6.818149  25.768591  60.936886  -3.973195  2.600877  -0.210355  -7.075974  -12.959595  12.886082  -23.671566  32.483339  7.068856  30.358233  17.795846  -1.026224  -3.84411  -0.767976  2.02955  -10.565795  -1.769441  5.654622  -10.565794  -1.769441  5.654622  16.536037  26.981817  8.608656  -143.937075  76.285593  -115.382977  -54.522361  -28.560281  90.445465  25.625901  -30.10318  7.077196  37.277274  1.458826  34.264859  108.689525  20.149196  43.048094  -15.346608  7.105096  -98.383038  95.979614  29.589583  74.649558  17.944946  0.338205  -6.232608  13.463791  0.070626  -4.68918  
0.0  101.685394  0.0  -2.581474  -43.879238  -97.588975  37.252103  -34.066097  -35.425758  6.908806  25.390372  61.027791  -4.19911  2.360582  -0.130677  -4.094744  -10.91097  14.782694  -28.724827  28.923522  5.436587  31.192613  17.747919  -0.724456  -3.96767  -0.809394  2.043475  -10.907443  -1.869189  5.702363  -10.907443  -1.869189  5.702364  16.271825  27.339759  9.183617  -144.121549  74.633826  -117.518456  -54.355194  -26.946985  91.802159  25.731746  -29.667037  7.933983  37.042566  1.926937  34.735752  108.396625  20.390176  42.815333  -15.297699  7.252049  -97.836907  95.419729  29.168634  74.481702  18.051736  0.491465  -5.972878  13.545064  0.192298  -4.498817  
